<?xml version="1.0" encoding="iso-8859-1"?>
<!-- Uploaded to: SVG Repo, www.svgrepo.com, Generator: SVG Repo Mixer Tools -->
<svg height="800px" width="800px" version="1.1" id="Layer_1" xmlns="http://www.w3.org/2000/svg" xmlns:xlink="http://www.w3.org/1999/xlink" 
	 viewBox="0 0 512 512" xml:space="preserve">
<path style="fill:#00E7F0;" d="M256,0c-0.005,0-0.008,0-0.012,0C114.837,0,0,114.843,0,256.003C0,397.16,114.837,512,255.988,512
	c0.005,0,0.008,0,0.012,0c141.158-0.006,256-114.845,256-255.997C512,114.846,397.158,0.006,256,0z"/>
<path style="fill:#00D7DF;" d="M255.988,512c0.005,0,0.008,0,0.012,0V0c-0.005,0-0.008,0-0.012,0C114.837,0,0,114.843,0,256.003
	C0,397.16,114.837,512,255.988,512z"/>
</svg>