<?xml version="1.0" encoding="iso-8859-1"?>
<!-- Uploaded to: SVG Repo, www.svgrepo.com, Generator: SVG Repo Mixer Tools -->
<svg height="800px" width="800px" version="1.1" id="Layer_1" xmlns="http://www.w3.org/2000/svg" xmlns:xlink="http://www.w3.org/1999/xlink" 
	 viewBox="0 0 512 512" xml:space="preserve">
<path style="fill:#E0E0E2;" d="M380.121,93.03h-2.586C357.432,42.209,310.557,6.568,256,0.833C250.888,0.295,245.715,0,240.485,0
	C161.468,0,96.776,62.5,93.243,140.659C40.603,148.142,0,193.51,0,248.182c0,59.887,48.719,108.606,108.606,108.606H256h124.121
	c72.718,0,131.879-59.161,131.879-131.879S452.839,93.03,380.121,93.03z"/>
<g>
	<path style="fill:#9BC9FF;" d="M431.321,412.701l-46.545,62.061c-7.713,10.282-5.627,24.869,4.655,32.582
		c4.186,3.139,9.086,4.656,13.945,4.656c7.075,0,14.065-3.215,18.637-9.311l46.545-62.061c7.713-10.283,5.627-24.869-4.655-32.582
		C453.623,400.333,439.034,402.42,431.321,412.701z"/>
	<path style="fill:#9BC9FF;" d="M314.958,412.701l-46.545,62.061c-7.713,10.282-5.627,24.869,4.655,32.582
		c4.186,3.139,9.086,4.656,13.945,4.656c7.076,0,14.064-3.215,18.637-9.311l46.545-62.061c7.713-10.283,5.627-24.869-4.655-32.582
		C337.259,400.333,322.667,402.42,314.958,412.701z"/>
</g>
<g>
	<path style="fill:#57A4FF;" d="M82.23,412.701l-46.545,62.061c-7.713,10.282-5.627,24.869,4.655,32.582
		c4.186,3.139,9.086,4.656,13.945,4.656c7.076,0,14.064-3.215,18.637-9.311l46.545-62.061c7.713-10.283,5.627-24.869-4.655-32.582
		C104.532,400.333,89.941,402.42,82.23,412.701z"/>
	<path style="fill:#57A4FF;" d="M198.594,412.701l-46.545,62.061c-7.713,10.282-5.627,24.869,4.655,32.582
		c4.186,3.139,9.086,4.656,13.945,4.656c7.076,0,14.064-3.215,18.637-9.311l46.545-62.061c7.713-10.283,5.627-24.869-4.655-32.582
		C220.895,400.333,206.303,402.42,198.594,412.701z"/>
</g>
<path style="fill:#C6C5CA;" d="M108.606,356.788H256V0.833C250.888,0.295,245.715,0,240.485,0C161.468,0,96.776,62.5,93.243,140.659
	C40.603,148.142,0,193.51,0,248.182C0,308.069,48.719,356.788,108.606,356.788z"/>
</svg>