<?xml version="1.0" encoding="iso-8859-1"?>
<!-- Uploaded to: SVG Repo, www.svgrepo.com, Generator: SVG Repo Mixer Tools -->
<svg height="800px" width="800px" version="1.1" id="Layer_1" xmlns="http://www.w3.org/2000/svg" xmlns:xlink="http://www.w3.org/1999/xlink" 
	 viewBox="0 0 512 512" xml:space="preserve">
<path style="fill:#FF6243;" d="M256,108.606c-115.493,0-209.455,93.961-209.455,209.455c0,12.853,10.42,23.273,23.273,23.273
	h162.909H256h23.273h162.909c12.853,0,23.273-10.42,23.273-23.273C465.455,202.567,371.493,108.606,256,108.606z"/>
<path style="fill:#A9A8AE;" d="M209.513,465.455c-12.798,0-23.212-10.412-23.212-23.211c0-12.853-10.42-23.273-23.273-23.273
	c-12.853,0-23.273,10.42-23.273,23.273c0,38.464,31.293,69.756,69.758,69.756s69.759-31.293,69.759-69.756V341.333H256h-23.273
	v100.911C232.727,455.042,222.313,465.455,209.513,465.455z"/>
<g>
	<path style="fill:#A7C7FC;" d="M23.273,77.576c12.853,0,23.273-10.42,23.273-23.273v-31.03C46.545,10.42,36.125,0,23.273,0
		S0,10.42,0,23.273v31.03C0,67.156,10.42,77.576,23.273,77.576z"/>
	<path style="fill:#A7C7FC;" d="M512,23.273C512,10.42,501.58,0,488.727,0s-23.273,10.42-23.273,23.273v31.03
		c0,12.853,10.42,23.273,23.273,23.273S512,67.156,512,54.303V23.273z"/>
	<path style="fill:#A7C7FC;" d="M23.273,201.697c12.853,0,23.273-10.42,23.273-23.273v-31.03c0-12.853-10.42-23.273-23.273-23.273
		S0,134.541,0,147.394v31.03C0,191.277,10.42,201.697,23.273,201.697z"/>
	<path style="fill:#A7C7FC;" d="M488.727,124.121c-12.853,0-23.273,10.42-23.273,23.273v31.03c0,12.853,10.42,23.273,23.273,23.273
		S512,191.277,512,178.424v-31.03C512,134.541,501.58,124.121,488.727,124.121z"/>
	<path style="fill:#A7C7FC;" d="M279.273,54.303v-31.03C279.273,10.42,268.853,0,256,0c-12.853,0-23.273,10.42-23.273,23.273v31.03
		c0,12.853,10.42,23.273,23.273,23.273C268.853,77.576,279.273,67.156,279.273,54.303z"/>
	<path style="fill:#A7C7FC;" d="M162.909,85.333v-31.03c0-12.853-10.42-23.273-23.273-23.273c-12.853,0-23.273,10.42-23.273,23.273
		v31.03c0,12.853,10.42,23.273,23.273,23.273C152.489,108.606,162.909,98.186,162.909,85.333z"/>
	<path style="fill:#A7C7FC;" d="M395.636,85.333v-31.03c0-12.853-10.42-23.273-23.273-23.273s-23.273,10.42-23.273,23.273v31.03
		c0,12.853,10.42,23.273,23.273,23.273S395.636,98.186,395.636,85.333z"/>
</g>
<path style="fill:#FF0C38;" d="M256,108.606c-115.493,0-209.455,93.961-209.455,209.455c0,12.853,10.42,23.273,23.273,23.273
	h162.909H256V108.606z"/>
</svg>