<?xml version="1.0" encoding="iso-8859-1"?>
<!-- Uploaded to: SVG Repo, www.svgrepo.com, Generator: SVG Repo Mixer Tools -->
<svg height="800px" width="800px" version="1.1" id="Layer_1" xmlns="http://www.w3.org/2000/svg" xmlns:xlink="http://www.w3.org/1999/xlink" 
	 viewBox="0 0 512 512" xml:space="preserve">
<path style="fill:#C4D9FD;" d="M477.702,128c-6.426-11.132-20.661-14.943-31.791-8.518l-166.645,96.213V23.273
	C279.266,10.42,268.846,0,255.994,0c-12.853,0-23.273,10.42-23.273,23.273v192.414L66.09,119.482
	c-11.134-6.426-25.366-2.613-31.791,8.518c-6.426,11.131-2.613,25.364,8.518,31.791L209.456,256L42.817,352.209
	c-11.132,6.426-14.946,20.66-8.518,31.791c4.31,7.467,12.133,11.639,20.176,11.639c3.949,0,7.95-1.005,11.615-3.122l166.63-96.205
	v192.414c0,12.853,10.42,23.273,23.273,23.273c12.853,0,23.273-10.42,23.273-23.273V296.305l166.645,96.213
	c3.665,2.116,7.666,3.122,11.615,3.122c8.043,0,15.866-4.174,20.176-11.639c6.426-11.131,2.613-25.364-8.518-31.791L302.544,256
	l166.639-96.209C480.315,153.364,484.128,139.131,477.702,128z"/>
<path style="fill:#A7C7FC;" d="M255.992,0c-12.853,0-23.273,10.42-23.273,23.273v192.414L66.09,119.482
	c-11.134-6.426-25.366-2.613-31.791,8.518c-6.428,11.131-2.614,25.364,8.518,31.791L209.456,256L42.817,352.209
	c-11.132,6.426-14.946,20.66-8.518,31.791c4.31,7.467,12.133,11.639,20.176,11.639c3.949,0,7.95-1.005,11.615-3.122l166.63-96.205
	v192.414c0,12.853,10.42,23.273,23.273,23.273c0.003,0,0.005,0,0.008,0V0C255.997,0,255.995,0,255.992,0z"/>
</svg>