<?xml version="1.0" encoding="iso-8859-1"?>
<!-- Uploaded to: SVG Repo, www.svgrepo.com, Generator: SVG Repo Mixer Tools -->
<svg height="800px" width="800px" version="1.1" id="Layer_1" xmlns="http://www.w3.org/2000/svg" xmlns:xlink="http://www.w3.org/1999/xlink" 
	 viewBox="0 0 512 512" xml:space="preserve">
<path style="fill:#FFB655;" d="M256.014,124.121c-0.003,0-0.006,0-0.006,0c-72.718,0.005-131.879,59.162-131.879,131.877
	c0,72.716,59.161,131.877,131.879,131.88c0,0,0.003,0,0.006,0c72.715,0,131.873-59.161,131.873-131.88
	C387.887,183.28,328.729,124.121,256.014,124.121z"/>
<g>
	<path style="fill:#EEBF00;" d="M256,77.576c12.853,0,23.273-10.42,23.273-23.273v-31.03C279.273,10.42,268.853,0,256,0
		c-12.853,0-23.273,10.42-23.273,23.273v31.03C232.727,67.156,243.147,77.576,256,77.576z"/>
	<path style="fill:#EEBF00;" d="M256,512c12.853,0,23.273-10.42,23.273-23.273v-31.03c0-12.853-10.42-23.273-23.273-23.273
		c-12.853,0-23.273,10.42-23.273,23.273v31.03C232.727,501.58,243.147,512,256,512z"/>
	<path style="fill:#EEBF00;" d="M488.727,232.727h-31.03c-12.853,0-23.273,10.42-23.273,23.273c0,12.853,10.42,23.273,23.273,23.273
		h31.03C501.58,279.273,512,268.853,512,256C512,243.147,501.58,232.727,488.727,232.727z"/>
	<path style="fill:#EEBF00;" d="M23.273,279.273H54.3c12.853,0,23.273-10.42,23.273-23.273c0-12.853-10.42-23.273-23.273-23.273
		H23.273C10.42,232.727,0,243.147,0,256C0,268.853,10.42,279.273,23.273,279.273z"/>
	<path style="fill:#EEBF00;" d="M398.621,136.651c5.956,0,11.914-2.273,16.457-6.817l21.94-21.943
		c9.087-9.089,9.086-23.825-0.003-32.912c-9.087-9.087-23.824-9.087-32.912,0.002l-21.94,21.943
		c-9.087,9.089-9.086,23.825,0.003,32.912C386.71,134.38,392.665,136.651,398.621,136.651z"/>
	<path style="fill:#EEBF00;" d="M107.892,437.018l21.943-21.942c9.087-9.087,9.089-23.824,0.002-32.912
		c-9.089-9.089-23.824-9.089-32.914-0.002L74.98,404.105c-9.087,9.087-9.089,23.824-0.002,32.912
		c4.546,4.544,10.502,6.816,16.457,6.816C97.39,443.834,103.348,441.563,107.892,437.018z"/>
	<path style="fill:#EEBF00;" d="M415.078,382.165c-9.089-9.089-23.824-9.089-32.914-0.002c-9.087,9.087-9.089,23.823-0.002,32.912
		l21.94,21.942c4.546,4.544,10.502,6.816,16.457,6.816c5.955,0,11.913-2.271,16.455-6.816c9.087-9.087,9.089-23.824,0.002-32.912
		L415.078,382.165z"/>
	<path style="fill:#EEBF00;" d="M96.918,129.835c4.546,4.544,10.502,6.817,16.457,6.817s11.913-2.271,16.455-6.816
		c9.087-9.087,9.089-23.824,0.002-32.912l-21.938-21.943c-9.089-9.089-23.825-9.089-32.914,0
		c-9.087,9.089-9.089,23.824-0.002,32.912L96.918,129.835z"/>
</g>
<path style="fill:#EE8700;" d="M256.008,387.877V124.12c-72.718,0.005-131.879,59.162-131.879,131.877
	C124.129,328.715,183.29,387.874,256.008,387.877z"/>
</svg>