<?xml version="1.0" encoding="iso-8859-1"?>
<!-- Uploaded to: SVG Repo, www.svgrepo.com, Generator: SVG Repo Mixer Tools -->
<svg height="800px" width="800px" version="1.1" id="Layer_1" xmlns="http://www.w3.org/2000/svg" xmlns:xlink="http://www.w3.org/1999/xlink" 
	 viewBox="0 0 511.999 511.999" xml:space="preserve">
<path style="fill:#E0E0E2;" d="M444.273,296.245c-4.403-5.725-9.284-11.065-14.622-15.919c-5.25-4.773-10.939-9.066-16.97-12.867
	c-18.633-11.745-40.658-18.571-64.263-18.571h-0.626h-1.745c-0.228-0.575-0.475-1.138-0.711-1.708
	c-8.416-20.45-21.585-38.138-38.002-51.913c-5.457-4.578-11.267-8.725-17.384-12.392c-6.102-3.658-12.499-6.852-19.146-9.521
	c-11.421-4.585-23.564-7.65-36.157-8.974c-4.686-0.493-9.427-0.764-14.221-0.764c-72.427,0-131.723,57.287-134.962,128.928
	C37.217,299.404,0,340.987,0,391.1c0,54.892,44.656,99.548,99.548,99.548h135.101h113.769c66.653,0,120.88-54.227,120.88-120.88
	C469.298,342.123,459.949,316.633,444.273,296.245z"/>
<path style="fill:#FFB655;" d="M307.335,195.268c16.417,13.775,29.586,31.463,38.002,51.913l2.456,1.708h0.626
	c23.606,0,45.631,6.826,64.264,18.571c6.03,3.801,11.718,8.093,16.97,12.867c5.339,4.854,10.219,10.194,14.622,15.919
	c16.093-19.024,25.024-43.097,25.024-68.69c0-58.812-47.847-106.659-106.659-106.659c-23.27,0-45.388,7.365-63.961,21.3
	c-11.239,8.435-20.733,19.11-27.872,31.156c6.647,2.669,13.044,5.863,19.146,9.521C296.069,186.543,301.878,190.69,307.335,195.268z
	"/>
<g>
	<path style="fill:#EEBF00;" d="M341.306,42.682v14.221c0,11.781,9.551,21.332,21.332,21.332s21.332-9.551,21.332-21.332V42.682
		c0-11.781-9.551-21.332-21.332-21.332S341.306,30.9,341.306,42.682z"/>
	<path style="fill:#EEBF00;" d="M219.565,84.481c-8.329,8.329-8.331,21.837-0.001,30.167l14.198,14.2
		c4.167,4.167,9.626,6.25,15.084,6.25c5.458,0,10.919-2.083,15.084-6.249c8.329-8.329,8.331-21.835,0.001-30.167l-14.198-14.2
		C241.401,76.152,227.895,76.152,219.565,84.481z"/>
	<path style="fill:#EEBF00;" d="M475.584,84.482l-14.198,14.2c-8.329,8.331-8.329,21.837,0.001,30.167
		c4.167,4.165,9.623,6.249,15.083,6.249c5.459,0,10.92-2.083,15.084-6.25l14.198-14.2c8.329-8.331,8.328-21.838-0.001-30.167
		C497.419,76.152,483.913,76.152,475.584,84.482z"/>
</g>
<path style="fill:#C6C5CA;" d="M99.548,490.649h135.101V164.381c-4.686-0.493-9.427-0.764-14.221-0.764
	c-72.427,0-131.723,57.287-134.962,128.928C37.217,299.404,0,340.987,0,391.1C0,445.991,44.656,490.649,99.548,490.649z"/>
<path style="fill:#EE8700;" d="M362.638,120.898c-23.27,0-45.388,7.365-63.961,21.3c-11.239,8.435-20.733,19.11-27.872,31.156
	c6.647,2.669,13.044,5.863,19.146,9.521c6.117,3.668,11.927,7.815,17.384,12.392c16.417,13.775,29.586,31.463,38.002,51.913
	l2.456,1.708h0.626c7.384,0,14.614,0.668,21.633,1.945v-129.65C367.6,121.015,365.132,120.898,362.638,120.898z"/>
</svg>