<!DOCTYPE svg PUBLIC "-//W3C//DTD SVG 1.1//EN" "http://www.w3.org/Graphics/SVG/1.1/DTD/svg11.dtd">
<!-- Uploaded to: SVG Repo, www.svgrepo.com, Transformed by: SVG Repo Mixer Tools -->
<svg height="800px" width="800px" version="1.1" id="Layer_1" xmlns="http://www.w3.org/2000/svg" xmlns:xlink="http://www.w3.org/1999/xlink" viewBox="0 0 512 512" xml:space="preserve" fill="#000000">
<g id="SVGRepo_bgCarrier" stroke-width="0"/>
<g id="SVGRepo_tracerCarrier" stroke-linecap="round" stroke-linejoin="round"/>
<g id="SVGRepo_iconCarrier"> <path style="fill:#E0E0E2;" d="M484.698,245.606c-4.803-6.246-10.128-12.072-15.953-17.368c-5.728-5.207-11.934-9.891-18.514-14.038 c-20.326-12.814-44.356-20.261-70.11-20.261h-0.683h-1.904c-0.248-0.627-0.518-1.241-0.776-1.863 c-9.182-22.311-23.549-41.609-41.46-56.637c-5.953-4.994-12.293-9.519-18.966-13.52c-6.658-3.99-13.636-7.475-20.888-10.387 c-12.46-5.002-25.709-8.346-39.447-9.79c-5.112-0.538-10.285-0.833-15.515-0.833c-79.017,0-143.709,62.5-147.242,140.659 C40.603,249.051,0,294.419,0,349.091c0,59.887,48.719,108.606,108.606,108.606H256h124.121c72.718,0,131.879-59.161,131.879-131.879 C512,295.658,501.8,267.849,484.698,245.606z"/> <path style="fill:#00e7f0;" d="M335.299,135.44c17.911,15.028,32.278,34.326,41.46,56.637l2.679,1.863h0.683 c25.754,0,49.783,7.447,70.111,20.261c6.578,4.147,12.784,8.83,18.514,14.038c5.824,5.295,11.149,11.121,15.953,17.368 C502.257,224.852,512,198.588,512,170.667c0-64.163-52.201-116.364-116.364-116.364c-25.387,0-49.518,8.035-69.781,23.239 c-12.262,9.202-22.62,20.849-30.408,33.991c7.252,2.912,14.23,6.397,20.888,10.387C323.008,125.921,329.346,130.445,335.299,135.44z "/> <path style="fill:#C6C5CA;" d="M240.485,100.909c-79.017,0-143.709,62.5-147.242,140.659C40.603,249.051,0,294.419,0,349.091 c0,59.887,48.719,108.606,108.606,108.606H256V101.742C250.888,101.204,245.715,100.909,240.485,100.909z"/> <path style="fill:#00d7df;" d="M395.635,54.303c-25.387,0-49.518,8.035-69.781,23.239c-12.262,9.202-22.62,20.849-30.408,33.991 c7.252,2.912,14.23,6.397,20.888,10.387c6.673,4.001,13.013,8.526,18.966,13.52c17.911,15.028,32.278,34.326,41.46,56.637 l2.679,1.863h0.683c8.055,0,15.943,0.729,23.602,2.122V54.615C401.048,54.43,398.356,54.303,395.635,54.303z"/> </g>
</svg>