<?xml version="1.0" encoding="iso-8859-1"?>
<!-- Uploaded to: SVG Repo, www.svgrepo.com, Generator: SVG Repo Mixer Tools -->
<svg height="800px" width="800px" version="1.1" id="Layer_1" xmlns="http://www.w3.org/2000/svg" xmlns:xlink="http://www.w3.org/1999/xlink" 
	 viewBox="0 0 512 512" xml:space="preserve">
<path style="fill:#E0E0E2;" d="M380.121,170.636h-2.586C357.432,119.815,310.557,84.175,256,78.439
	c-5.112-0.538-10.285-0.833-15.515-0.833c-79.017,0-143.709,62.5-147.242,140.659C40.603,225.748,0,271.116,0,325.788
	c0,59.885,48.719,108.606,108.606,108.606H256h124.121c72.718,0,131.879-59.161,131.879-131.879S452.839,170.636,380.121,170.636z"
	/>
<path style="fill:#C6C5CA;" d="M108.606,434.394H256V78.439c-5.112-0.538-10.285-0.833-15.515-0.833
	c-79.017,0-143.709,62.5-147.242,140.659C40.603,225.748,0,271.116,0,325.788C0,385.675,48.719,434.394,108.606,434.394z"/>
</svg>