<?xml version="1.0" encoding="iso-8859-1"?>
<!-- Uploaded to: SVG Repo, www.svgrepo.com, Generator: SVG Repo Mixer Tools -->
<svg height="800px" width="800px" version="1.1" id="Layer_1" xmlns="http://www.w3.org/2000/svg" xmlns:xlink="http://www.w3.org/1999/xlink" 
	 viewBox="0 0 512 512" xml:space="preserve">
<path style="fill:#E0E0E2;" d="M461.983,276.842c-6.813-5.412-14.168-10.159-21.976-14.158c-17.985-9.21-38.33-14.441-59.887-14.441
	h-0.031h-2.555c-20.103-50.821-66.977-86.463-121.534-92.197c-5.112-0.538-10.285-0.833-15.515-0.833
	c-9.022,0-17.856,0.824-26.436,2.385c-7.998,1.455-15.776,3.553-23.273,6.246c-8.11,2.914-15.889,6.524-23.273,10.75
	c-42.583,24.371-71.914,69.366-74.26,121.278c-52.64,7.481-93.243,52.848-93.243,107.521C0.001,463.279,48.72,512,108.607,512H256
	h124.121c72.718,0,131.878-59.161,131.878-131.878C511.999,338.316,492.424,301.021,461.983,276.842z"/>
<path style="fill:#ACABB1;" d="M511.999,184.611c0-60.397-48.859-109.6-109.125-110.168C383.875,29.834,339.797,0,290.094,0
	c-67.596,0-122.591,54.993-122.591,122.588v52.005c7.384-4.226,15.161-7.837,23.273-10.75c7.497-2.693,15.275-4.791,23.273-6.246
	c8.58-1.559,17.414-2.385,26.436-2.385c5.23,0,10.403,0.295,15.515,0.833c54.557,5.736,101.432,41.376,121.534,92.197h2.555h0.031
	c21.557,0,41.902,5.232,59.887,14.441c7.807,3.998,15.163,8.746,21.976,14.158C492.07,257.15,511.999,223.174,511.999,184.611z"/>
<path style="fill:#C6C5CA;" d="M240.485,155.213c-9.022,0-17.856,0.824-26.436,2.385c-7.998,1.455-15.776,3.553-23.273,6.246
	c-8.11,2.914-15.889,6.524-23.273,10.75c-42.583,24.371-71.914,69.366-74.26,121.278c-52.64,7.481-93.243,52.848-93.243,107.521
	C0.001,463.279,48.72,512,108.607,512H256V217.32v-61.274C250.889,155.508,245.717,155.213,240.485,155.213z"/>
</svg>