<?xml version="1.0" encoding="iso-8859-1"?>
<!-- Uploaded to: SVG Repo, www.svgrepo.com, Generator: SVG Repo Mixer Tools -->
<svg height="800px" width="800px" version="1.1" id="Layer_1" xmlns="http://www.w3.org/2000/svg" xmlns:xlink="http://www.w3.org/1999/xlink" 
	 viewBox="0 0 512 512" xml:space="preserve">
<g>
	<path style="fill:#5286FA;" d="M27.083,256.002c0,12.853,10.42,23.273,23.273,23.273h328.983c12.853,0,23.273-10.42,23.273-23.273
		s-10.42-23.273-23.273-23.273H50.356C37.503,232.729,27.083,243.149,27.083,256.002z"/>
	<path style="fill:#5286FA;" d="M462.936,139.636c0-12.853-10.42-23.273-23.273-23.273H90.579c-12.853,0-23.273,10.42-23.273,23.273
		c0,12.853,10.42,23.273,23.273,23.273h349.085C452.516,162.909,462.936,152.489,462.936,139.636z"/>
	<path style="fill:#5286FA;" d="M426.733,372.359c0-12.853-10.42-23.273-23.273-23.273H170.733
		c-12.853,0-23.273,10.42-23.273,23.273c0,12.853,10.42,23.273,23.273,23.273h232.727
		C416.313,395.632,426.733,385.212,426.733,372.359z"/>
	<path style="fill:#5286FA;" d="M230.371,465.455c-12.853,0-23.273,10.42-23.273,23.273S217.518,512,230.371,512h76.136
		c12.853,0,23.273-10.42,23.273-23.273s-10.42-23.273-23.273-23.273H230.371z"/>
	<path style="fill:#5286FA;" d="M23.273,46.545h465.455c12.853,0,23.273-10.42,23.273-23.273S501.58,0,488.727,0H23.273
		C10.42,0,0,10.42,0,23.273S10.42,46.545,23.273,46.545z"/>
</g>
<g>
	<path style="fill:#424EDE;" d="M27.083,256.002c0,12.853,10.42,23.273,23.273,23.273H256v-46.545H50.356
		C37.503,232.729,27.083,243.149,27.083,256.002z"/>
	<path style="fill:#424EDE;" d="M67.306,139.636c0,12.853,10.42,23.273,23.273,23.273H256v-46.545H90.579
		C77.726,116.364,67.306,126.784,67.306,139.636z"/>
	<path style="fill:#424EDE;" d="M147.461,372.359c0,12.853,10.42,23.273,23.273,23.273H256v-46.545h-85.267
		C157.881,349.086,147.461,359.506,147.461,372.359z"/>
	<path style="fill:#424EDE;" d="M207.098,488.727c0,12.853,10.42,23.273,23.273,23.273H256v-46.545h-25.629
		C217.518,465.455,207.098,475.875,207.098,488.727z"/>
	<path style="fill:#424EDE;" d="M23.273,0C10.42,0,0,10.42,0,23.273s10.42,23.273,23.273,23.273H256V0H23.273z"/>
</g>
</svg>